M48
;Layer_Color=9474304
;FILE_FORMAT=4:4
METRIC,LZ
;TYPE=PLATED
T1F00S00C0.4000
T3F00S00C0.7112
T4F00S00C0.8128
T5F00S00C1.0160
T6F00S00C1.0668
T7F00S00C3.2000
;TYPE=NON_PLATED
T8F00S00C0.6500
%
T01
X003421Y009412
Y009492
Y009572
X003491Y009532
Y009612
Y009692
Y009772
X003421Y009812
Y009892
X003491Y009932
X003421Y009732
X003491Y009372
T03
X0032131Y0090805
X00393446Y009777
X0066675Y0095504
T04
X006858Y009398
Y009652
Y009906
Y01016
T05
X003937Y009398
Y010414
X004191
X004699
X004953
X005461
X005715
X006223
X006477
Y009398
X006223
X005715
X005461
X004953
X004699
X004191
T06
X003048Y00889
X003302
X003556
T07
X003048Y008382
Y01143
X006858
Y008382
T08
X003556Y010012
M30
