G04 Layer_Color=255*
%FSLAX44Y44*%
%MOMM*%
G71*
G01*
G75*
%ADD10R,0.7000X0.3000*%
%ADD13O,1.4000X0.8000*%
%ADD14C,0.6500*%
%ADD15O,0.6500X0.9500*%
%ADD16C,1.7780*%
%ADD17R,1.7780X1.7780*%
%ADD18C,5.0000*%
%ADD19O,2.0320X1.5240*%
G04:AMPARAMS|DCode=20|XSize=1.524mm|YSize=2.032mm|CornerRadius=0.1905mm|HoleSize=0mm|Usage=FLASHONLY|Rotation=270.000|XOffset=0mm|YOffset=0mm|HoleType=Round|Shape=RoundedRectangle|*
%AMROUNDEDRECTD20*
21,1,1.5240,1.6510,0,0,270.0*
21,1,1.1430,2.0320,0,0,270.0*
1,1,0.3810,-0.8255,-0.5715*
1,1,0.3810,-0.8255,0.5715*
1,1,0.3810,0.8255,0.5715*
1,1,0.3810,0.8255,-0.5715*
%
%ADD20ROUNDEDRECTD20*%
G04:AMPARAMS|DCode=21|XSize=1.905mm|YSize=1.905mm|CornerRadius=0.2381mm|HoleSize=0mm|Usage=FLASHONLY|Rotation=90.000|XOffset=0mm|YOffset=0mm|HoleType=Round|Shape=RoundedRectangle|*
%AMROUNDEDRECTD21*
21,1,1.9050,1.4287,0,0,90.0*
21,1,1.4287,1.9050,0,0,90.0*
1,1,0.4763,0.7144,0.7144*
1,1,0.4763,0.7144,-0.7144*
1,1,0.4763,-0.7144,-0.7144*
1,1,0.4763,-0.7144,0.7144*
%
%ADD21ROUNDEDRECTD21*%
%ADD22C,1.9050*%
D10*
X362200Y937700D02*
D03*
Y942700D02*
D03*
Y947700D02*
D03*
Y952700D02*
D03*
Y957700D02*
D03*
Y992700D02*
D03*
Y987700D02*
D03*
Y982700D02*
D03*
Y977700D02*
D03*
Y972700D02*
D03*
Y967700D02*
D03*
Y962700D02*
D03*
D13*
X283600Y920300D02*
D03*
Y1010100D02*
D03*
X343100Y923900D02*
D03*
Y1006500D02*
D03*
D14*
X349100Y993200D02*
D03*
Y937200D02*
D03*
X342100Y989200D02*
D03*
Y941200D02*
D03*
Y949200D02*
D03*
Y981200D02*
D03*
Y973200D02*
D03*
Y957200D02*
D03*
X349100Y977200D02*
D03*
Y953200D02*
D03*
Y961200D02*
D03*
Y969200D02*
D03*
X355600Y1001200D02*
D03*
D15*
Y929200D02*
D03*
D16*
X419100Y1041400D02*
D03*
X546100Y939800D02*
D03*
X647700Y1041400D02*
D03*
X571500D02*
D03*
X495300D02*
D03*
X393700Y939800D02*
D03*
X469900D02*
D03*
X622300D02*
D03*
D17*
X393700Y1041400D02*
D03*
X571500Y939800D02*
D03*
X622300Y1041400D02*
D03*
X546100D02*
D03*
X469900D02*
D03*
X419100Y939800D02*
D03*
X495300D02*
D03*
X647700D02*
D03*
D18*
X685800Y838200D02*
D03*
Y1143000D02*
D03*
X304800Y838200D02*
D03*
Y1143000D02*
D03*
D19*
X685800Y939800D02*
D03*
Y990600D02*
D03*
Y965200D02*
D03*
D20*
Y1016000D02*
D03*
D21*
X304800Y889000D02*
D03*
D22*
X330200D02*
D03*
X355600D02*
D03*
M02*
