G04 Layer_Color=8388736*
%FSLAX44Y44*%
%MOMM*%
G71*
G01*
G75*
%ADD13O,1.4000X0.8000*%
%ADD14C,0.6500*%
%ADD15O,0.6500X0.9500*%
%ADD27R,0.9032X0.5032*%
%ADD28C,1.9812*%
%ADD29R,1.9812X1.9812*%
%ADD30C,5.2032*%
%ADD31O,2.2352X1.7272*%
G04:AMPARAMS|DCode=32|XSize=1.7272mm|YSize=2.2352mm|CornerRadius=0.2921mm|HoleSize=0mm|Usage=FLASHONLY|Rotation=270.000|XOffset=0mm|YOffset=0mm|HoleType=Round|Shape=RoundedRectangle|*
%AMROUNDEDRECTD32*
21,1,1.7272,1.6510,0,0,270.0*
21,1,1.1430,2.2352,0,0,270.0*
1,1,0.5842,-0.8255,-0.5715*
1,1,0.5842,-0.8255,0.5715*
1,1,0.5842,0.8255,0.5715*
1,1,0.5842,0.8255,-0.5715*
%
%ADD32ROUNDEDRECTD32*%
G04:AMPARAMS|DCode=33|XSize=2.1082mm|YSize=2.1082mm|CornerRadius=0.3397mm|HoleSize=0mm|Usage=FLASHONLY|Rotation=90.000|XOffset=0mm|YOffset=0mm|HoleType=Round|Shape=RoundedRectangle|*
%AMROUNDEDRECTD33*
21,1,2.1082,1.4287,0,0,90.0*
21,1,1.4287,2.1082,0,0,90.0*
1,1,0.6795,0.7144,0.7144*
1,1,0.6795,0.7144,-0.7144*
1,1,0.6795,-0.7144,-0.7144*
1,1,0.6795,-0.7144,0.7144*
%
%ADD33ROUNDEDRECTD33*%
%ADD34C,2.1082*%
%ADD35C,1.4732*%
D13*
X283600Y920300D02*
D03*
Y1010100D02*
D03*
X343100Y923900D02*
D03*
Y1006500D02*
D03*
D14*
X349100Y993200D02*
D03*
Y937200D02*
D03*
X342100Y989200D02*
D03*
Y941200D02*
D03*
Y949200D02*
D03*
Y981200D02*
D03*
Y973200D02*
D03*
Y957200D02*
D03*
X349100Y977200D02*
D03*
Y953200D02*
D03*
Y961200D02*
D03*
Y969200D02*
D03*
X355600Y1001200D02*
D03*
D15*
Y929200D02*
D03*
D27*
X362200Y937700D02*
D03*
Y942700D02*
D03*
Y947700D02*
D03*
Y952700D02*
D03*
Y957700D02*
D03*
Y992700D02*
D03*
Y987700D02*
D03*
Y982700D02*
D03*
Y977700D02*
D03*
Y972700D02*
D03*
Y967700D02*
D03*
Y962700D02*
D03*
D28*
X419100Y1041400D02*
D03*
X546100Y939800D02*
D03*
X647700Y1041400D02*
D03*
X571500D02*
D03*
X495300D02*
D03*
X393700Y939800D02*
D03*
X469900D02*
D03*
X622300D02*
D03*
D29*
X393700Y1041400D02*
D03*
X571500Y939800D02*
D03*
X622300Y1041400D02*
D03*
X546100D02*
D03*
X469900D02*
D03*
X419100Y939800D02*
D03*
X495300D02*
D03*
X647700D02*
D03*
D30*
X685800Y838200D02*
D03*
Y1143000D02*
D03*
X304800Y838200D02*
D03*
Y1143000D02*
D03*
D31*
X685800Y939800D02*
D03*
Y990600D02*
D03*
Y965200D02*
D03*
D32*
Y1016000D02*
D03*
D33*
X304800Y889000D02*
D03*
D34*
X330200D02*
D03*
X355600D02*
D03*
D35*
X321310Y908050D02*
D03*
X666750Y955040D02*
D03*
X393446Y977700D02*
D03*
M02*
